<?xml version="1.0" standalone="no"?><!DOCTYPE svg PUBLIC "-//W3C//DTD SVG 1.1//EN" "http://www.w3.org/Graphics/SVG/1.1/DTD/svg11.dtd"><svg t="1599720701984" class="icon" viewBox="0 0 1024 1024" version="1.1" xmlns="http://www.w3.org/2000/svg" p-id="993" xmlns:xlink="http://www.w3.org/1999/xlink" width="200" height="200"><defs><style type="text/css"></style></defs><path d="M1006.5100972 351.67432939L666.99233728 18.75078891a46.21589693 46.21589693 0 0 0-71.01467089 7.72143644 337.65785188 337.65785188 0 0 0-50.72476493 216.48202454 46.27225779 46.27225779 0 0 1-13.01935634 37.5926869L433.09481011 379.234785a45.93409269 45.93409269 0 0 1-46.49770118 11.27216998 398.92209574 398.92209574 0 0 0-362.96387349 58.16439712 45.08867994 45.08867994 0 0 0-4.79067225 67.63301991l206.28071071 209.04239235-183.00367968 178.10028575a56.36084992 56.36084992 0 0 0-0.50724765 79.91968518 57.65714947 57.65714947 0 0 0 80.82145878 0.45088681l182.44007119-177.5930381 196.92480963 199.57376957a46.10317524 46.10317524 0 0 0 68.59115435-3.2689293 388.1571734 388.1571734 0 0 0 64.08228635-367.41638063 44.46871058 44.46871058 0 0 1 11.27216999-45.93409269l99.02601332-98.40604395a46.49770118 46.49770118 0 0 1 37.31088264-13.07571719 344.53387557 344.53387557 0 0 0 217.77832408-55.79724141 45.08867994 45.08867994 0 0 0 6.9887454-70.11289731z m-458.77731835 456.52288435h-3.15620759a31.33663255 31.33663255 0 0 1-29.19492026-28.57495091 172.68964415 172.68964415 0 0 0-13.01935634-51.85198192 30.8293849 30.8293849 0 0 1 12.34302614-38.7199039l2.93076419-2.02899059a31.28027171 31.28027171 0 0 1 44.75051484 14.59746012 241.22443766 241.22443766 0 0 1 18.26091538 72.87457895 30.94210661 30.94210661 0 0 1-32.68929296 33.5347057z" p-id="994"></path></svg>