<?xml version="1.0" standalone="no"?><!DOCTYPE svg PUBLIC "-//W3C//DTD SVG 1.1//EN" "http://www.w3.org/Graphics/SVG/1.1/DTD/svg11.dtd"><svg t="1599720974851" class="icon" viewBox="0 0 1024 1024" version="1.1" xmlns="http://www.w3.org/2000/svg" p-id="1276" xmlns:xlink="http://www.w3.org/1999/xlink" width="200" height="200"><defs><style type="text/css"></style></defs><path d="M350.34453333 319.20355556l131.072-131.072c19.6608 6.5536 43.69066667 6.5536 63.35146667 0L675.84 319.20355556h87.38133333L592.82773333 148.80995556c26.2144-43.69066667 13.1072-102.67306667-32.768-128.88746667-43.69066667-26.2144-102.67306667-10.92266667-128.88746666 32.768-17.47626667 30.58346667-17.47626667 67.72053333 0 96.11946667L260.77866667 319.20355556h89.56586666z m530.8416 0H142.81386667c-34.95253333 0-65.536 28.39893333-65.536 65.536v552.68693333c0 34.95253333 30.58346667 65.536 65.536 65.536h736.18773333c37.13706667 0 65.536-30.58346667 65.536-65.536V384.73955556c2.18453333-34.95253333-28.39893333-65.536-63.35146667-65.536zM208.34986667 513.62702222h279.62026666c8.73813333 0 15.29173333 10.92266667 15.29173334 21.84533334s-6.5536 21.84533333-15.29173334 21.84533333H208.34986667c-8.73813333 0-15.29173333-10.92266667-15.29173334-21.84533333s6.5536-21.84533333 15.29173334-21.84533334z m423.79946666 305.83466667H210.5344c-10.92266667 0-19.6608-10.92266667-19.6608-21.84533333s8.73813333-21.84533333 19.6608-21.84533334h419.4304c10.92266667 0 19.6608 10.92266667 19.6608 21.84533334s-8.73813333 21.84533333-17.47626667 21.84533333z m96.11946667-131.072H212.71893333c-10.92266667 0-19.6608-10.92266667-19.6608-21.84533333s8.73813333-21.84533333 19.6608-21.84533334H730.45333333c10.92266667 0 19.6608 10.92266667 19.6608 21.84533334s-10.92266667 21.84533333-21.84533333 21.84533333z" p-id="1277"></path></svg>