<?xml version="1.0" standalone="no"?><!DOCTYPE svg PUBLIC "-//W3C//DTD SVG 1.1//EN" "http://www.w3.org/Graphics/SVG/1.1/DTD/svg11.dtd"><svg t="1600148461577" class="icon" viewBox="0 0 1024 1024" version="1.1" xmlns="http://www.w3.org/2000/svg" p-id="1317" xmlns:xlink="http://www.w3.org/1999/xlink" width="16" height="16"><defs><style type="text/css"></style></defs><path d="M978.25223111 260.49194667a55.34151111 55.34151111 0 0 1 0 99.25063112L530.56853333 573.02584889a52.06471111 52.06471111 0 0 1-44.85575111 0L37.95626667 359.74257779a55.34151111 55.34151111 0 0 1 0-99.25063112l447.68369778-213.28327111a52.06471111 52.06471111 0 0 1 44.8557511 0l447.68369778 213.28327111z m-26.2144 216.48725334a40.12259555 40.12259555 0 0 1 33.78744889 72.81777778l-449.57696 208.47729777a66.91953778 66.91953778 0 0 1-56.28814222 0L30.38321778 549.72416001a40.12259555 40.12259555 0 1 1 33.78744889-72.81777778l443.96999111 205.92867556 443.89717333-205.85585778z m0 198.06435555a40.12259555 40.12259555 0 0 1 33.78744889 72.81777778l-449.57696 208.47729778a66.91953778 66.91953778 0 0 1-56.28814222 0l-449.57696-208.55011556a40.12259555 40.12259555 0 1 1 33.78744889-72.81777777l443.96999111 205.92867555 443.89717333-205.85585778z" p-id="1318"></path></svg>