<?xml version="1.0" standalone="no"?><!DOCTYPE svg PUBLIC "-//W3C//DTD SVG 1.1//EN" "http://www.w3.org/Graphics/SVG/1.1/DTD/svg11.dtd"><svg t="1599710085057" class="icon" viewBox="0 0 2550 1024" version="1.1" xmlns="http://www.w3.org/2000/svg" p-id="1219" xmlns:xlink="http://www.w3.org/1999/xlink" width="498.046875" height="200"><defs><style type="text/css"></style></defs><path d="M643.859692 599.197538c9.531077-34.422154 21.346462-71.049846 35.446154-110.276923l75.145846-208.187077h111.931077V716.012308H786.668308v-220.553846c0-32.295385 1.339077-69.789538 3.859692-112.561231H787.692308c-3.702154 12.288-8.113231 26.151385-13.075693 41.590154-4.962462 15.36-10.161231 30.562462-15.596307 45.528615L668.908308 715.933538h-51.436308L527.438769 470.016a1663.448615 1663.448615 0 0 1-28.672-87.197538h-2.914461c2.599385 40.093538 3.938462 77.508923 3.938461 112.246153v220.868923H420.076308V280.654769h111.300923L606.523077 487.896615c12.603077 34.500923 24.418462 71.68 35.446154 111.379693h1.890461v-0.07877zM1375.153231 498.294154c0 33.161846-4.726154 63.645538-14.257231 91.214769a200.782769 200.782769 0 0 1-41.196308 71.522462c-18.116923 19.849846-40.329846 35.288615-66.717538 46.473846a229.533538 229.533538 0 0 1-89.954462 16.462769c-33.634462 0-63.645538-5.435077-89.954461-16.462769a189.046154 189.046154 0 0 1-66.717539-46.473846 202.279385 202.279385 0 0 1-41.275077-71.522462 280.418462 280.418462 0 0 1-14.178461-91.214769c0-33.161846 4.726154-63.566769 14.178461-91.214769s23.158154-51.436308 41.275077-71.443693c18.116923-19.928615 40.329846-35.446154 66.717539-46.473846a229.533538 229.533538 0 0 1 89.954461-16.620308c33.634462 0 63.566769 5.513846 89.954462 16.620308 26.308923 11.027692 48.600615 26.545231 66.717538 46.473846 18.116923 19.928615 31.901538 43.795692 41.196308 71.443693 9.531077 27.648 14.257231 58.052923 14.257231 91.214769z m-82.313846 0c0-26.387692-3.229538-49.545846-9.767385-69.395692-6.537846-19.849846-15.517538-36.391385-27.017846-49.624616s-25.206154-23.079385-41.038769-29.617231a135.010462 135.010462 0 0 0-52.066462-9.767384c-18.904615 0-36.233846 3.308308-52.066461 9.767384a107.835077 107.835077 0 0 0-40.96 29.617231 142.572308 142.572308 0 0 0-27.017847 49.624616 222.286769 222.286769 0 0 0-9.767384 69.395692c0 26.466462 3.229538 49.624615 9.767384 69.474461 6.537846 19.849846 15.517538 36.312615 27.017847 49.467077s25.127385 23.000615 40.96 29.617231 33.161846 9.924923 52.066461 9.924923c18.825846 0 36.155077-3.308308 52.066462-9.924923 15.832615-6.616615 29.538462-16.462769 41.038769-29.617231s20.48-29.617231 27.017846-49.467077 9.767385-43.008 9.767385-69.474461zM1781.838769 411.490462c0 30.404923-8.428308 56.083692-25.206154 77.272615s-42.771692 36.785231-77.824 47.025231v1.339077l129.575385 178.884923h-95.625846l-118.547692-168.566154h-54.587077v168.487384h-79.714462V280.654769h132.411077c21.897846 0 42.299077 1.260308 60.967385 3.702154 18.904615 2.441846 35.052308 6.222769 48.443077 11.264 25.678769 9.767385 45.371077 24.260923 59.234461 43.401846 13.863385 19.219692 20.873846 43.401846 20.873846 72.467693z m-203.067077 69.316923c18.116923 0 33.713231-0.787692 46.316308-2.441847a143.36 143.36 0 0 0 32.059077-7.325538c16.068923-6.065231 27.175385-14.414769 33.319385-24.891077a69.868308 69.868308 0 0 0 9.294769-36.233846 64.354462 64.354462 0 0 0-7.325539-31.113846 50.412308 50.412308 0 0 0-24.891077-21.346462 105.314462 105.314462 0 0 0-28.59323-7.640615 306.254769 306.254769 0 0 0-42.456616-2.441846h-57.028923v133.356307l39.305846 0.07877zM1957.809231 649.294769h214.094769v66.717539h-293.809231V280.654769h282.151385v66.717539h-202.358154v112.56123h173.686154v66.717539h-173.686154v122.643692h-0.078769z" p-id="1220"></path><path d="M2244.450462 983.355077H327.916308A253.006769 253.006769 0 0 1 75.145846 730.584615V310.587077A253.006769 253.006769 0 0 1 327.916308 57.816615h1916.612923c139.421538 0 252.849231 113.348923 252.849231 252.770462l-0.07877 420.076308a253.085538 253.085538 0 0 1-252.84923 252.691692z m-1916.534154-866.461539a193.929846 193.929846 0 0 0-193.693539 193.693539v420.076308a193.929846 193.929846 0 0 0 193.693539 193.693538h1916.534154a194.008615 194.008615 0 0 0 193.772307-193.693538l0.078769-420.076308a194.008615 194.008615 0 0 0-193.772307-193.693539H327.916308z" p-id="1221"></path></svg>