<?xml version="1.0" standalone="no"?><!DOCTYPE svg PUBLIC "-//W3C//DTD SVG 1.1//EN" "http://www.w3.org/Graphics/SVG/1.1/DTD/svg11.dtd"><svg t="1600246449294" class="icon" viewBox="0 0 1024 1024" version="1.1" xmlns="http://www.w3.org/2000/svg" p-id="1084" xmlns:xlink="http://www.w3.org/1999/xlink" width="16" height="16"><defs><style type="text/css"></style></defs><path d="M-1792.90822939 473.17000349c-7.38199302-39.30779828-16.05718532-70.10203579-25.81005276-92.22108081v33.16511154c2.4247445 19.72125831 3.69100788 35.67068209 3.69100748 47.95603363 4.9033799 29.52799577-7.38199302 46.74366143-36.88305429 51.64704059-17.24262227 7.35505886-38.17625266 11.04604439-62.72004223 11.04606661a279.92318447 279.92318447 0 0 1 47.95605549 11.07300111c9.80673744 2.47863573 14.76398697 8.64825703 14.76398674 18.45499486 0 9.86062887-4.95724961 16.03025059-14.76398674 18.45499427-7.38199302 2.47863573-14.73705222 7.35505886-22.11906786 14.76398662l-3.69098551 3.69100777c-2.47863573 2.47863573-3.69100788 6.16962115-3.69100766 11.07297929h62.72004209c27.02242549-29.52799577 44.26504749-43.02574063 51.64704106-40.60097484 12.28537317 0 31.95273972 8.64825703 59.00209975 25.83698778v-3.69100781c73.76608649-181.96354855 115.55252098-354.14729409 125.41312764-516.41651879 0-14.76398697 7.35505886-19.64043125 22.14600245-14.76400898a236.81663965 236.81663965 0 0 0 29.50103864 7.35505839c61.42684403 12.33924268 105.69189168 23.41224367 132.79514307 33.19204662 9.80673744 4.95724961 15.97635894 12.33924268 18.48192904 22.11904536-2.50557029 9.86062887-8.64825703 16.03025059-18.48192904 18.45499463-19.66736653 2.47863573-30.76730242 9.86062887-33.16511198 22.11906791a2011.67518415 2011.67518415 0 0 1-59.0290341 154.94112303h88.53009552c29.50103892-51.64704113 51.64704113-79.88183828 66.38409291-84.83908747a276.63633056 276.63633056 0 0 1 110.64914096 88.53007287c7.35505886 14.76398697 4.93031462 23.38530924-7.35505872 25.8100535h-125.41315005c34.40441857 4.98420615 59.00209982 9.86062887 73.7930433 14.76400899 12.25841635 2.47863573 19.64043125 9.86062887 22.09211085 22.11904502 0 9.86062887-6.16962115 17.24262227-18.42805958 22.14598031-14.7909434 4.95724961-24.62461581 17.24262227-29.55493046 36.88305388-32.00660937 118.03113388-71.34134223 210.2522152-118.03113407 276.66326553 56.55042093 61.45377847 119.24350653 108.2513312 188.13316947 140.12324503 17.16179622 9.83367233 24.54378975 17.21568789 22.09211071 22.14600213 2.45167886 4.9033799-4.98420615 8.56743046-22.09211071 11.04604429-44.29198251 12.31230826-79.9626648 33.19204674-107.01202437 62.72004225-2.47863573 2.4247445-4.95724961 4.9033799-7.35505877 7.35505853-9.86062887 19.64043125-23.41224367 20.82584697-40.60097504 3.69098588-51.64704113-44.26504749-92.22108087-91.03566556-121.7221416-140.17711442-68.88966354 56.57735546-162.29618192 108.19746225-280.35425082 154.96805794-12.33924268 4.9033799-20.87973853 4.9033799-25.81005277 0-2.47863573-7.40895057 1.2123721-14.7909434 11.07300071-22.14598022a389.62938943 389.62938943 0 0 0 59.00209965-47.9291204c-9.86062887 0-24.62461581-7.35505886-44.29200447-22.14598051-4.95724961-7.35505886-11.07300101-12.31230826-18.45499455-14.73705185-59.00209982 56.57735546-157.39280195 93.40651827-295.09130265 110.64914072-9.86062887 0-14.73705222-2.47863573-14.73705258-7.35505903-2.47863573-5.01114112 0-9.88756362 7.32810222-14.79094333 100.81544634-49.19536261 172.12985427-95.88515423 213.94322337-140.17713676a658.45263798 658.45263798 0 0 0-51.64704167-29.47410365v3.69100763c-2.47863573 2.47863573-3.69100788 4.95724961-3.69098544 7.35505885-4.98420615 9.83367233-13.55161483 17.21568789-25.81005321 22.09211061h-7.38199338c-22.11904545 0-45.5043546-2.4247445-70.10203537-7.35505889-9.86062887-2.4247445-17.26955724-8.56743046-22.11906747-18.48192931 0-4.9033799 2.4247445-13.47078865 7.38201525-25.78311835 27.02242549-61.45377847 45.47741986-106.98508988 55.33802642-136.48612855h-29.50103843c-27.13018604 0-45.53128914 1.26626355-55.36498352 3.69098552-7.35505886 5.01114112-13.55161483 3.74487682-18.45499468-3.69098552l-3.69100784-7.32812424c-4.98420615-7.38199302-7.38199302-13.49774506-7.38199317-18.45499392-2.47863573-4.9033799-2.47863573-7.38199302 0-7.38199409 0-2.4247445 2.4247445-3.69100788 7.38199317-3.69098534 27.02242549 4.98420615 59.00209982 7.38199302 95.91208875 7.3819937h18.45499455c7.35505886-24.57074634 12.28537317-47.95603313 14.7640089-70.10203611 0-17.18873074 11.04604439-23.33141748 33.16508971-18.45499413h11.0730013c4.9033799 2.47863573 8.59436562 3.69100788 11.07300097 3.69098555-2.47863573-4.9033799-3.69100788-11.07300101-3.69100745-18.45499468v-14.7639868c2.4247445-19.64043125 3.69100788-35.61679053 3.69100745-47.92909861-39.36166793 49.19536261-94.72665119 89.79633696-165.98718951 121.72214192-9.86062887 4.98420615-17.24262227 6.16962115-22.11904534 3.69098572-2.47863573-4.9033799 0-11.04604439 7.38199339-18.45499437 63.90547958-71.287473 108.17050517-145.05355929 132.79514292-221.32521623H-2088.10731534c-14.73705222 2.50557029-24.62461581 3.71794241-29.50103858 3.71794267-4.98420615 4.95724961-11.07300101 3.69100788-18.48195142-3.71794267a94.88830399 94.88830399 0 0 0-11.07297913-22.11904558c-2.47863573-4.9033799-3.69100788-8.56743046-3.69100769-11.04606659h7.35505861c22.14600229 2.47863573 55.36498335 3.69100788 99.60307429 3.69100816h88.53009533v-66.41105032c0-56.55042093-2.47863573-105.69189168-7.35505833-147.5591076-7.38199302-24.54378975 2.4247445-34.40441857 29.501061-29.50106088 58.97516499 4.95724961 99.60307439 12.31230826 121.7221196 22.11904518 22.14600229 9.83367233 25.81005314 23.38530924 11.07300125 40.57406213-12.33924268 7.35505886-18.45499497 19.69430135-18.45499446 36.88303226v88.53009516c17.18873074-34.40441857 33.16511191-73.76608649 47.92909836-118.05809065 2.45167886-17.16179622 13.47078865-19.64043125 33.19204672-7.35503677 29.50103892 9.86062887 57.76279291 22.11904545 84.8391095 36.88303226 9.77980297 4.95724961 13.49774506 12.33924268 11.04604417 22.11904548-4.95724961 9.86062887-13.55161483 14.76398697-25.81005325 14.76400906-9.83367233-2.4247445-25.81005314 4.95724961-47.92909831 22.1190454-41.86723841 36.8830544-76.27165697 60.29529812-103.29408227 70.10203541v14.7640088h36.85609745c27.04935975-41.78641206 45.47741986-62.72004222 55.36498371-62.72004225 34.37748391 14.76398697 62.72004222 35.67068209 84.81215267 62.72004225 9.77980297 19.69430135 7.35505886 29.50103892-7.35505843 29.50103909h-169.6781754v29.52799556c49.14147055 2.47863573 88.50313834 19.69430135 118.03113399 51.64704098 27.02242549 41.84030323 20.82584697 76.24472203-18.48192917 103.26714733-39.14614575 19.80208457-63.77076188 8.72908336-73.55056426-33.11124224z m-284.01832332-239.78021073a495.75232471 495.75232471 0 0 0-29.52797414-84.83908795c-4.95724961-7.35505886-7.35505886-12.28537317-7.35505857-14.76398685 2.4247445-4.9033799 7.35505886-6.11575203 14.76398675-3.69100729 63.93241441 2.47863573 106.98508988 24.59768086 129.10413532 66.41104958 12.28537317 44.26504749-1.26626355 73.76608649-40.57403975 88.50313869-41.86723841 9.88756362-64.01324061-7.35505886-66.41104961-51.62010618z m247.10833439 398.38540718h-77.45709456c-4.98420615 14.7909434-13.55161483 35.67068209-25.81005295 62.72004219a1370.14186363 1370.14186363 0 0 1-25.81005306 66.41102774 998.32088083 998.32088083 0 0 1 81.14810196-3.69100773 1031.75540623 1031.75540623 0 0 0 47.92909861-125.4400622z m121.72214185-40.57404026v3.69098575c7.38199302 2.47863573 16.00331568 8.64825703 25.81005333 18.45499451 7.38199302 4.98420615 12.28537317 8.64825703 14.7639867 11.07300106 17.18873074 17.24262227 14.76398697 30.82119425-7.35505895 40.60097472-17.24262227 2.47863573-29.50103892 14.73705222-36.88305389 36.82916268-4.95724961 7.35505886-9.86062887 17.26955724-14.76398704 29.58188715-12.33924268 19.66736653-20.90667321 34.40441857-25.81005316 44.26504774 39.30779828 14.73705222 58.97516499 38.14929552 58.97516506 70.10203617 44.29198251-44.31891719 81.17503662-88.50313834 110.64914098-132.82207794-22.11904545-58.97516499-38.14929552-126.598565-47.9560558-202.84328762a478.4827672 478.4827672 0 0 1-77.43013723 81.06727578z m188.13316977-250.85321179a180.34704503 180.34704503 0 0 1-11.07300106 18.45499435c-24.62461581 46.74366143-45.53128914 81.17503662-62.72004247 103.29408247a1391.31797262 1391.31797262 0 0 0 70.10203563 136.45917184c29.52799577-73.76608649 50.35384262-159.81754593 62.69310764-258.20824866h-59.00209974z" p-id="1085"></path><path d="M-548.28725431 487.9070555h-18.50888604v147.55912992h7.35505883l3.71794208-3.69098548c19.64043125-31.92578287 34.37748391-47.92909887 44.3189174-47.92909865 61.37295226 19.69430135 104.47951929 45.5043546 129.05024324 77.45709398 4.93031462 12.36619937-1.26626355 22.14600229-18.42803734 29.52797343a35.58985604 35.58985604 0 0 0-11.09993598 25.83701005c0 71.34134223 2.4247445 136.43223693 7.38199339 195.48822872 2.4247445 29.52799577-9.86062887 46.66285706-36.88305391 51.67397573a209.63256179 209.63256179 0 0 1-66.38409343 11.04604435c-27.10325149 4.9033799-39.36166793-7.35505886-36.88303189-36.88303256v-55.36498343h-166.01412461v29.52799591c0 27.04935975-11.04604439 45.47741986-33.16511185 55.36496131-22.09211091 7.35505886-43.07961036 11.04604439-62.66615066 11.04606612-34.45830982 4.9033799-46.77061807-17.26955724-36.883054-66.41102743 2.4247445-27.04935975 3.69100788-89.71551069 3.69100758-188.10623499v-18.42806005c-32.00660937 105.7727179-98.3637677 190.47708772-199.23312763 254.46339343-9.83367233 7.35505886-17.24262227 9.77980297-22.09211074 7.35505901-2.47863573-2.47863573-1.26626355-9.83367233 3.69100776-22.09211082l14.73705168-29.52799601c-2.47863573 4.9033799-6.16962115 7.35505886-11.01910939 7.35505887-14.7909434 9.77980297-40.60099665 17.21568789-77.45709443 22.09211068-29.55493067 7.40895057-47.95603313 0-55.39191777-22.09211068-7.32812419-41.84030323-27.07629472-66.41102794-58.94823085-73.76610852-19.72125831-4.9033799-28.31562331-11.04604439-25.83698762-18.48192936-2.50557029-12.25841635 8.54049585-15.94942383 33.16511162-11.04604385 63.93241441 17.26955724 92.22108087-4.9033799 84.81215298-66.41105048v-147.53217296c-2.47863573 0-6.16962115 2.47863573-11.04606643 7.35505917-4.95724961 2.47863573-8.62130017 4.98420615-11.04604429 7.38199309-14.7909434 4.95724961-22.14600229 11.04604439-22.14600227 18.45499431-4.95724961 9.83367233-11.01910957 14.73705222-18.45499426 14.73705235-9.86062887 0-17.24262227-4.9033799-22.11904573-14.73705235-17.24262227-36.8830544-29.52799577-71.287473-36.88305411-103.29408215-4.95724961-19.64043125 1.23930702-30.74036756 18.4819512-33.19204644a3576.76644914 3576.76644914 0 0 1 103.26712548-22.11906769v-173.36916088h-58.97514331c-14.7909434 2.47863573-25.83698795 3.69100788-33.16511128 3.69098578-5.01114112 2.47863573-9.86062887-1.2123721-14.79094364-11.07300118a830.60944881 830.60944881 0 0 1-11.04604487-11.04604447l-3.71794189-7.38199311c-2.47863573-4.9033799-3.69100788-8.56743046-3.69100797-11.04606684h11.04606639c29.52799577 4.95724961 61.45377847 7.35505886 95.93902335 7.35505885h18.45499489V233.38979276c0-73.76608649-3.69100788-124.1468859-11.04604451-151.25011565-9.83367233-24.54378975 0-35.58985604 29.52797369-33.16511141 31.95273972 0 73.76608649 8.62130017 125.38619274 25.8100525 24.57074634 12.33924268 28.26173222 27.10325149 11.07300119 44.26504815-14.76398697 9.86062887-22.11904545 20.93362998-22.11904558 33.1920464v106.98506771c22.11904545-31.95273972 35.61679053-47.95603313 40.57404011-47.9560331 7.35505886 0 28.28866646 12.33924268 62.72004225 36.88305431v-18.45499477c0-63.90547958-3.71794241-108.17050517-11.0999358-132.79514323-4.95724961-24.54378975 4.95724961-34.40441857 29.55493002-29.50103836 46.63590085 7.35505886 86.02452527 22.11904545 118.03113421 44.26502544h7.35505875l3.74487732 3.69100793h210.22528024c17.21568789-27.02242549 31.95273972-42.99878402 44.29198237-47.92909887 34.40441857 4.95724961 73.76608649 25.81005314 118.08502602 62.69308525 22.06517568 17.24262227 22.06517568 33.19204674 0 47.95605563-12.36619937 4.95724961-19.72125831 12.31230826-22.14598039 22.11904508 0 34.45830982 2.4247445 68.88966354 7.32810195 103.26714778 4.95724961 27.10325149-4.95724961 45.53128914-29.50103876 55.33804869-22.11904545 7.38199302-45.5043546 12.33924268-70.07510099 14.76398682-32.00660937 0-46.77061807-9.77980297-44.31891689-29.50106097v-3.7179202h-232.39821748c0 44.29198251-2.47863573 84.83908797-7.32812391 121.74907682h99.57613946c0-31.95273972-2.50557029-61.42684403-7.35505856-88.53009565-5.01114112-22.11904545 6.11575203-31.92578287 33.13817734-29.50106097 49.19536261 4.95724961 87.29076634 12.31230826 114.36708315 22.11906779 17.21568789 7.35505886 17.21568789 19.69430135 0 36.88303231-7.35505886 7.35505886-11.07300101 19.69430135-11.0730011 36.88305422v22.11904544h44.29198258c34.37748391-51.64704113 55.36498335-76.19083047 62.72004219-73.76608663 41.78641206 14.76398697 78.66946621 39.36166793 110.62218366 73.76608663 4.93031462 9.86062887 6.14268679 17.24262227 3.71794234 22.11906758-2.50557029 4.98420615-8.62130017 7.38199302-18.45499393 7.38199311h-84.83908795c-44.39974362-2.37085289-77.64568157-3.66405103-99.71083541-3.66407304z m-372.57535389-66.38409296c2.4247445-36.8830544 3.71794241-74.97845844 3.7179419-114.34012644h-103.29408152v140.15017932c17.16179622-4.9033799 41.78641206-11.04604439 73.76608605-18.45499397 12.25841635-2.39780939 20.79891241-4.87642277 25.81005357-7.35505891z m-92.22108125 427.88644585c51.64704113-108.19746225 82.360452-239.7532762 92.22108125-394.66744262-9.86062887 7.35505886-25.81005314 18.45499497-47.9560555 33.16508973-22.09211091 17.24262227-39.36166793 29.52799577-51.62008412 36.88305448 0 66.41102794 2.4247445 168.49273791 7.35505837 306.13736905v18.48192936z m306.11041235-217.63420845c2.4247445 0 3.74487682 1.26626355 3.74487739 3.69098548h7.35505871v-147.55912992h-99.60307421a1056.9188491 1056.9188491 0 0 1-18.45499495 106.98508993 424.86898319 424.86898319 0 0 1 106.95813306 36.88305451z m151.27707235-486.91548077h-217.63423071c-7.35505886 4.95724961-11.07300101 14.76398697-11.0729785 29.50103916 0 46.74366143-1.26626355 92.22108087-3.69100791 136.4861286h232.39821712v-165.98716776z m11.09993587 516.4165194h-158.63213083c-5.01114112 4.95724961-7.38199302 14.73705222-7.38199329 29.47410429v162.32313843h166.01412412v-191.79724272z" p-id="1086"></path><path d="M-130.01895862 185.43375929h84.83908755c27.02242549-46.66285706 44.26504749-70.10203579 51.62008411-70.10203539 31.95273972 12.33924268 63.93241441 38.14929552 95.93904577 77.45709404 7.35505886 14.76398697 3.71794241 23.41224367-11.07300114 25.83698791-31.97967438-2.4247445-77.45709452-3.69100788-136.4322592-3.69100752h-62.72004239c59.02903428 17.24262227 95.93902361 46.71672645 110.6491411 88.50316042 7.35505886 44.29198251-11.04604439 73.76608649-55.33802705 88.53007347-51.67397587 12.33924268-79.9626648-3.69100788-84.8121527-47.92909884 0-59.02903428-6.16962115-95.93902361-18.48192918-110.64914062-61.50766996 83.62671566-129.10413532 148.7984368-202.8432873 195.48822869-9.86062887 4.98420615-16.05718532 6.16962115-18.48195137 3.69100746-2.47863573-2.4247445-1.26626355-8.56743046 3.69100794-18.45499469 66.43798463-118.03113388 109.43676884-232.37128275 129.10413521-343.02042361 0-14.76398697 6.14268679-20.85280397 18.48192928-18.45499428 36.8830544 7.35505886 84.78519585 18.45499497 143.8681443 33.19204634 12.25841635 4.95724961 18.45499497 9.83367233 18.45499442 14.73705222 0 7.38199302-4.98420615 13.55161483-14.76400888 18.45499457-14.76398697 4.98420615-22.09211091 11.07300101-22.09211072 18.45499436-2.53250533 2.50557029-6.16962115 8.64825703-11.07300112 18.45499474-9.88756362 17.21568789-16.11107679 27.07629472-18.53579863 29.50106073z m-22.0921109 549.63552254v-125.41312747c0-61.42684403-1.29319843-102.00088387-3.71794223-121.74909886-4.95724961-22.11904545 4.93031462-30.71341079 29.55493056-25.81003079 49.11453587 12.33924268 92.19414623 24.59768086 129.07717837 36.88303192 2.4247445 0 4.9033799 1.26626355 7.35505857 3.69100797 2.4247445 0 3.69100788 1.26626355 3.6910076 3.69098563h177.03323414c19.66736653-29.50103892 35.61679053-44.26504749 47.95603329-44.26502552 27.02242549 4.95724961 61.42684403 22.11904545 103.29408195 51.64704088l25.81005317-62.72004234h-564.3186831c9.77980297 44.29198251 4.93031462 83.62671566-14.76400882 118.0580691-39.38862486 44.26504749-79.9626648 50.43466916-121.74907649 18.45499443-24.59768086-31.95273972-25.81005314-63.93241441-3.7179426-95.91208877 39.30779828-22.14600229 65.14478644-61.45377847 77.45709432-118.05806895 2.4247445-9.77980297 6.14268679-15.97635894 11.07300093-18.45499446 7.35505886-2.4247445 13.49774506 1.26626355 18.48192928 11.07300128 0 2.47863573 1.2123721 4.95724961 3.69100792 7.35505846 12.25841635 24.62461581 19.64043125 41.86723841 22.11904548 51.64704132h261.92621268c-14.7909434-7.35505886-23.41224367-23.33141748-25.83698765-47.95605579a124.57795194 124.57795194 0 0 0-18.48192916-88.50313859c-2.47863573-7.38199302-3.69100788-12.28537317-3.69100771-14.76400886 2.4247445-2.4247445 7.35505886-3.69100788 14.7639867-3.69098542 27.02242549 0 50.35384262 2.47863573 70.12899223 7.35505844 36.8830544-63.90547958 63.90547958-135.21988778 81.14808012-213.94322291-2.47863573-12.25841635 4.9033799-17.16179622 22.11904566-14.7370517 39.30779828 4.95724961 81.17503662 16.03025059 125.38619258 33.16508939 9.77980297 4.98420615 15.97635894 9.86062887 18.48195111 14.76400903-2.50557029 7.38199302-8.64825703 13.55161483-18.48195111 18.45499465a58.19385901 58.19385901 0 0 0-14.7639865 11.07300107c-4.98420615 4.95724961-8.62130017 7.35505886-11.07300109 7.35503636-9.80673744 19.69430135-18.42805983 33.19204674-25.81005355 40.57406183h110.64914091c34.40441857-46.66285706 56.55042093-72.47288818 66.38409319-77.45709391 29.52799577 12.33924268 59.02903428 40.57404001 88.55703002 84.83908774 4.9033799 9.83367233 7.35505886 16.03025059 7.3550589 18.45499441 0 4.95724961-4.98420615 7.35505886-14.79092179 7.35505867-29.50103892-2.4247445-79.9626648-3.69100788-151.19624571-3.69100767h-118.05809119c76.16389599 22.11904545 118.05806881 59.00209982 125.38619275 110.64914034 0 41.84030323-20.87973853 68.88966354-62.69308517 81.14810228-54.12567678 7.38199302-81.14807974-9.77980297-81.14810226-51.62010651 0-61.45377847-6.16962115-99.60307439-18.48192912-114.36708274-22.11904545 19.72125831-52.88634785 40.60099665-92.19414641 62.72004208 24.48992015 14.76398697 38.06846946 35.67068209 40.57403978 62.69308536 4.9033799 32.00660937-9.86062887 55.33804869-44.31891644 70.10203562h236.11615905c22.09211091-36.8830544 41.78641206-56.55042093 58.97514312-59.00209976 27.02242549 9.83367233 61.42684403 35.67068209 103.29408256 77.45709406 17.18873074 22.11904545 23.33141748 38.14929552 18.48195136 47.95605541-4.98420615 4.95724961-20.93362998 8.62130017-47.95605568 11.04604426-41.84030323 0-84.83908797 12.33924268-129.10413548 36.88305472 4.9033799 9.86062887-1.26626355 18.45499497-18.48192909 25.83698769-12.33924268 4.95724961-18.45499497 13.52468001-18.45499415 25.81005306 0 4.95724961 1.2123721 13.55161483 3.69100765 25.81005307v22.1190454c4.93031462 22.14600229-2.47863573 36.8830544-22.09211055 44.31893944-27.10325149 7.30116718-54.15261137 12.31230826-81.17503723 14.73705212-29.52799577 2.47863573-43.07961036-8.56743046-40.60099671-33.19204674v-11.04606664h-199.17921401v92.24803805h236.06226833c17.21568789-29.52799577 33.19204674-45.5043546 47.9560331-47.92909861 44.29198251 12.31230826 84.81215307 34.45830982 121.74907674 66.35713666 9.77980297 17.26955724 8.56743046 29.52799577-3.69098513 36.88305428-14.76398697 9.88756362-22.14600229 18.48192915-22.14600247 25.83698765 0 12.36619937 1.2123721 34.40441857 3.6910076 66.4110498v29.52797378c4.95724961 19.64043125-2.47863573 33.19204674-22.06517546 40.57406197a202.92411342 202.92411342 0 0 1-84.8390878 18.48192896c-29.52799577 2.4247445-43.07961036-8.62130017-40.60097508-33.19204664v-33.1381769h-236.06229021v11.04606685c2.4247445 14.73705222-7.35505886 27.04935975-29.55493057 36.88303208-17.24262227 4.9033799-45.47741986 9.77980297-84.78519619 14.73707383-32.00660937 4.9033799-44.31891719-8.62130017-36.88305431-40.57406222 0-5.01114112 1.2123721-20.87973853 3.69100782-47.92909841 2.50557029-68.91659826 3.79876885-120.59059632 3.79876868-155.04888422z m343.02040155-199.20617079h-191.79722053c-4.95724961 4.95724961-7.32812419 13.55161483-7.32812402 25.81005309v62.72004234h199.17923598l-0.05389143-88.53009543z m36.90998932 239.75327607h-236.06226871v110.64914087h236.06226871v-110.64914087z" p-id="1087"></path><path d="M605.56746845 624.39320647l-7.35505868 3.69098569c-7.35505886 7.35505886-11.04604439 13.57857188-11.0460665 18.48192902-4.98420615 9.83367233-11.09993586 14.73705222-18.48192891 14.73707409-9.83367233 0-17.24262227-4.9033799-22.11904557-14.73707409-9.86062887-17.21568789-22.11904545-46.66285706-36.88305454-88.55702993-2.47863573-9.77980297-4.98420615-15.97635894-7.35505876-18.45497249-2.50557029-14.76398697 3.71794241-24.54378975 18.48192934-29.50106095 4.9033799 0 11.04604439-1.2123721 18.4280598-3.71794265 17.24262227-4.9033799 43.05267581-12.25841635 77.48402899-22.11904534v-151.22318092h-22.0921109c-27.10325149 0-45.53128914 1.26626355-55.39191809 3.69098572-4.95724961 2.47863573-9.80673744 1.26626355-14.73705206-3.69098572l-3.69100774-3.69100772c0-2.4247445-1.26626355-4.9033799-3.69098577-7.38199323a152.75885804 152.75885804 0 0 1-11.07300079-18.4549944c-2.50557029-7.35505886 0-9.77980297 7.35505861-7.35505877 34.37748391 4.95724961 66.41102794 7.35505886 95.91208879 7.35505877h7.35505854v-62.69310754c0-73.76608649-3.71794241-124.1468859-11.04606612-151.22318092-7.35505886-24.54378975 3.69100788-35.61679053 33.16511147-33.19204641 34.40441857 4.95724961 78.66946621 14.76398697 132.82207822 29.52799575 24.51685452 9.83367233 28.23479734 24.59768086 11.04604405 44.26504783-14.76398697 9.86062887-22.11904545 20.90667321-22.11904591 33.19204633v118.03113383c14.7909434-24.54378975 24.54378975-36.8830544 29.52799588-36.88305368 14.76398697 2.47863573 35.61679053 18.45499497 62.72004236 47.95605514 24.54378975-22.11904545 42.99878402-55.33804869 55.31109221-99.60309616 4.93031462-7.35505886 8.59436562-12.25841635 11.09993562-14.73705246 4.9033799 0 8.54049585 3.69100788 11.04604433 11.04606682 2.4247445 2.47863573 4.9033799 7.38199302 7.3281234 14.7639863 2.4247445 7.35505886 6.14268679 18.45499497 11.0730014 33.19204652h151.22318106c-29.50103892 0-47.95603313-15.97635894-55.33804893-47.95603282-9.83367233-46.66285706-24.62461581-79.88183828-44.2919822-99.57613989-7.32812419-7.38199302-9.86062887-12.28537317-7.32810187-14.76400892 0-2.4247445 4.9033799-4.9033799 14.73705182-7.35505856 85.99756778-2.4247445 141.38950854 14.73705222 165.98716764 51.6201061 24.51685452 54.12567678 11.04604439 92.22108087-40.60097434 114.36708361h-11.0460667a32.70708879 32.70708879 0 0 1-14.76398682 3.69098547h151.22318085c19.64043125-36.8830544 36.8830544-57.76279291 51.62010617-62.72002026 36.8830544 12.33924268 76.19083047 40.60099665 118.05806883 84.83908772 9.80673744 12.33924268 11.07300101 22.11904545 3.71794269 29.52797327-2.50557029 4.95724961-12.33924268 7.35505886-29.5279959 7.35505889-39.36166793 0-91.03566556 28.31562331-154.94112303 84.83908751 29.50103892 7.35505886 57.78972788 18.45499497 84.8390875 33.16511221 54.04485024 39.38862486 60.18753727 82.44127818 18.42806032 129.1041349-14.73705222 14.76398697-30.76730242 22.14600229-47.92909907 22.14600261 29.55493067 17.24262227 56.57735546 38.14929552 81.1750366 62.69308542 9.80673744 17.26955724 4.9033799 27.10325149-14.73705177 29.52799532h-202.89717874c7.35505886 7.35505886 6.14268679 14.73705222-3.69098547 22.1460026-9.83367233 4.95724961-14.76398697 13.52468001-14.7640088 25.78309603v184.44218412h95.93902368c31.92578287-46.66285706 55.33804869-72.4998453 70.07510053-77.45709409 46.6897919 14.7909434 86.07839457 41.78641206 118.08502532 81.14807988 9.77980297 14.7909434 6.14268679 23.35837409-11.07300066 25.83698767-34.45830982-2.47863573-104.56034578-3.69100788-210.27917201-3.69098565h-339.3832853c-14.73705222 0-31.97967438 2.4247445-51.62010685 7.35505887-7.32812419 4.9033799-13.55161483 2.4247445-18.45499407-7.35505887a144.81108061 144.81108061 0 0 1-18.48192917-22.14600202c-2.47863573-2.47863573-3.69100788-4.95724961-3.69100811-7.30116728 0-2.53250533 2.4247445-3.74487682 7.35505869-3.74487718 22.11904545 4.95724961 56.55042093 7.35505886 103.29408225 7.35505867h118.03113456v-232.37128275h-92.22108134c-27.10325149 0-45.53128914 1.26626355-55.36498297 3.69100779-4.95724961 5.01114112-11.04604439 3.69100788-18.45499539-3.69100779-2.47863573-2.4247445-3.69100788-4.9033799-3.69100738-7.35505851-2.53250533-4.9033799-7.38199302-11.04604439-14.79092148-18.48192903-7.32812419-7.32812419-4.95724961-9.77980297 7.35505833-7.32812417 19.64043125 2.47863573 54.09871984 3.69100788 103.2940825 3.69100749h261.8992564c2.4247445-2.4247445 4.93031462-6.11575203 7.35505822-11.07300063 31.95273972-46.66285706 52.88634785-70.07510079 62.72004249-70.07510125h3.69098558a543.22342247 543.22342247 0 0 1-29.52797351-33.19204627c-36.8830544-59.00209982-83.62671566-106.98508988-140.15020179-143.8681221-5.01114112-4.9033799-6.16962115-9.77980297-3.69098541-14.76398719 0-2.4247445 4.9033799-2.4247445 14.76398654 0 44.26504749 4.98420615 82.360452 11.07300101 114.34012648 18.454995v-3.69100781l33.1651118-103.29408184h-302.47329596c7.32812419 44.29198251 4.9033799 77.48402883-7.3820154 99.60307411-27.07629472 36.8830544-61.48073535 43.05267581-103.2671254 18.45499418-19.69430135-12.28537317-25.83698795-29.52799577-18.4819515-51.64704087h-66.43796237v106.98508998a416.86733642 416.86733642 0 0 0 77.51096374-29.52799588c12.25841635-4.9033799 19.64043125-4.9033799 22.09211045 0 2.4247445 7.38199302-1.26626355 16.03025059-11.04604415 25.83698807-14.7909434 14.73705222-36.85609746 34.45830982-66.41105028 59.0020996-9.83367233 7.35505886-17.24262227 13.55161483-22.11904504 18.45499475v22.11906723c-2.50557029 39.36166793-1.29319843 120.56363954 3.71794253 243.41732724 2.4247445 36.8830544 3.69100788 62.72004222 3.69098566 77.45709423 7.38199302 49.19536261-7.35505886 82.4143435-44.29198294 99.6030743a632.15762733 632.15762733 0 0 1-84.81215291 22.1460024c-32.00660937 4.9033799-50.40773428-2.47863573-55.33802628-22.1460024-9.86062887-44.26504749-28.28866646-71.287473-55.33804897-81.14807968-19.69430135-9.83367233-28.34255823-17.26955724-25.86392283-22.1460025 2.45167886-4.9033799 13.55161483-6.11575203 33.19204657-3.69100754 61.45377847 14.7909434 88.55703021-7.35505886 81.17503649-66.41102775v-165.98718966c-2.2630915 4.95724961-5.92714281 7.38199302-10.83052185 7.38201549z m398.35845037-276.63633051c36.8830544 14.76398697 74.97845844 36.8830544 114.34012619 66.38409327 17.21568789 22.14600229 13.47078865 35.67068209-11.04604423 40.60099654-9.83367233 0-24.62461581 4.95724961-44.29198236 14.73705173-86.10535109 59.02903428-167.25343085 99.60307439-243.44428406 121.74907684-9.83367233 2.47863573-16.03025059 2.47863573-18.45499439 0-2.53250533-2.4247445 0-7.35505886 7.35505856-14.76400887 71.287473-59.00209982 126.598565-132.79514294 165.960233-221.32521624 7.46281949-12.28537317 17.24262227-14.7909434 29.58188729-7.38199327z" p-id="1088"></path><path d="M2049.36765721 580.12815854h-110.64914054c0 27.10325149 2.4247445 67.67729139 7.35505881 121.72211986 2.4247445 81.2019715 4.9033799 146.40064939 7.32810167 195.54212005 2.4247445 31.95273972-6.16962115 50.35384262-25.83698806 55.36498332-27.07629472 17.16179622-62.66615027 25.78311826-106.95813309 25.78311874-29.50103892 4.9033799-43.07961036-16.00331568-40.60099654-62.66617271 2.4247445-44.31891719 4.93031462-92.24803792 7.35505871-143.86812199v-191.85111251h-221.32521641a1120.50102343 1120.50102343 0 0 0-121.74907676 7.38199348h-3.71794236c-7.32812419 2.47863573-13.52468001 1.26626355-18.42805959-3.69098549a244.44111168 244.44111168 0 0 0-22.14598057-36.88305442c-2.47863573-4.93031462-2.47863573-8.59436562 0-11.07300107 2.4247445-2.4247445 6.14268679-2.4247445 11.04604464 0 76.19083047 7.35505886 135.27375666 11.07300101 177.06019053 11.07300107h199.2061488v-376.26633955h-180.72421964c-34.43135306 0-71.31440774 2.47863573-110.62220623 7.38199337-7.38199302 4.95724961-13.57857188 3.69100788-18.50886378-3.71794236-2.47863573-4.9033799-7.32812419-12.25841635-14.73707383-22.11904558a46.39342133 46.39342133 0 0 0-7.35503675-11.04606684l-3.71794247-7.38199292c2.45167886-2.4247445 7.38199302-3.69100788 14.76398672-3.69100793 22.11904545 4.95724961 71.287473 7.35505886 147.58606418 7.35505876h468.46050845c29.52799577-54.04485024 52.85941319-83.57282407 70.12897015-88.50313812 31.92578287 9.83367233 74.95152386 40.57404001 129.10413509 92.22108021 7.32812419 9.83367233 9.75286831 17.24262227 7.32810214 22.1190677-2.47863573 7.35505886-8.59436562 11.04604439-18.42803788 11.04604472-59.02903428-2.4247445-143.86812214-3.69100788-254.51728468-3.69100807h-51.67397575c7.38199302 12.33924268 4.93031462 23.41224367-7.32810216 33.1920466-12.31230826 7.35505886-18.45499497 19.69430135-18.45499459 36.88305446v276.66326485c61.39990901-108.19746225 100.76157721-201.60398044 118.03113458-280.32731565 2.4247445-19.64043125 13.47078865-27.04935975 33.19204626-22.11904541 29.50103892 9.83367233 74.97845844 33.16511191 136.43223719 70.07507876 19.64043125 17.24262227 17.21568789 32.00660937-7.35505826 44.29198192-19.66736653 0-35.67068209 7.35505886-47.92909858 22.11906779-61.50766996 73.76608649-134.08831932 138.96476439-217.63420884 195.51516329h151.22318052c29.52799577-59.02903428 52.85941319-92.22108087 70.10203577-99.60307429 46.66285706 17.24262227 93.46040975 51.64704113 140.17713655 103.29408183 9.77980297 19.69430135 6.14268679 30.79423729-11.04606653 33.19204688-61.42684403-2.45167886-146.26593172-3.71794241-254.43643687-3.71794275z m-457.44137592-166.01412432c-12.31230826-63.90547958-34.43135306-111.86151282-66.38409346-143.84118722-4.98420615-7.38199302-6.16962115-14.76398697-3.71794224-22.14600236 2.4247445-4.9033799 8.56743046-6.11575203 18.48192909-3.69098563 95.93902361 14.76398697 159.84450309 47.95603313 191.79722068 99.60307437 27.04935975 61.48073535 14.76398697 106.95813305-36.8830321 136.45919418-59.00209982 19.74819325-93.46040975-2.39780939-103.29408197-66.38409334z m350.42935156 132.82207774l-3.6910077-3.71794239v3.71794239h3.6910077zM3006.19847443 480.52506203a324.75401626 324.75401626 0 0 0-25.83698803-59.00209949c-122.93451407 22.11904545-260.68688406 43.05267581-413.12245896 62.69310728-61.45377847 12.33924268-97.09752612 22.11904545-106.98506766 29.52799577-31.97967438 24.59768086-51.62010651 23.38530924-58.97516468-3.69100778-14.7909434-31.95273972-25.83698795-70.10203579-33.16511218-114.3670835-4.98420615-17.16179622 4.9033799-25.81005314 29.52799581-25.81005284 41.78641206-2.4247445 72.4998453-13.49774506 92.19414609-33.19204685 78.66946621-83.57282407 135.27375666-165.98718978 169.70511003-247.13526953 9.77980297-22.11904545 27.04935975-29.52799577 51.62010625-22.11904528 29.55493067 7.35505886 78.66946621 24.59768086 147.58606471 51.62010654 17.21568789 7.38199302 25.83698795 17.24262227 25.83701 29.52797326-2.50557029 12.33924268-12.31230826 18.45499497-29.55493043 18.45499474-2.47863573 0-4.95724961 1.26626355-7.328124 3.69100754-24.62461581 4.98420615-40.57404001 12.33924268-47.92909848 22.11904583-86.13228592 76.27165697-175.82086191 136.48612868-269.30820656 180.75117616 46.71672645 0 169.70511004-4.9033799 368.85741137-14.7639866 19.64043125-2.4247445 33.16511191-3.69100788 40.57404027-3.69100805-22.09211091-34.40441857-54.09871984-70.10203579-95.8851543-106.98506756-9.83367233-7.35505886-13.60550622-13.47078865-11.0999358-18.45499477 4.95724961-4.9033799 12.31230826-6.11575203 22.1190675-3.69100755 135.27375666 27.10325149 225.04315868 68.88966354 269.25431497 125.41312757 44.34587408 68.88966354 43.07961036 121.74907662-3.69100762 158.63213089-54.12567678 29.50103892-92.22108087 19.69430135-114.3940183-29.52799578z m-402.04945797 84.86604471h280.35427286c22.06517568-29.52799577 39.30779828-45.47741986 51.62008421-47.95605542 66.41102794 19.69430135 111.83457856 45.53128914 136.45919434 77.45709411 2.4247445 7.38199302-3.69100788 16.03025059-18.48192953 25.8369877-9.83367233 9.83367233-14.73705222 18.45499497-14.73705204 25.81005343 0 27.10325149 1.2123721 87.29076634 3.69098595 180.75117639 2.4247445 39.30779828 3.69100788 61.39990901 3.69100724 66.35715844 4.93031462 34.40441857-3.69100788 52.88634785-25.78311816 55.36498355a572.50893893 572.50893893 0 0 1-84.8390878 14.79094356c-29.55493067 4.9033799-43.07961036-6.19657828-40.60097442-33.19204661v-66.41105007h-298.78231064v44.26504787c4.93031462 24.57074634-6.16962115 39.30779828-33.16511171 44.3189169-7.35505886 2.4247445-25.83698795 6.11575203-55.33804888 11.04606661-9.86062887 2.4247445-17.26955724 3.69100788-22.11904555 3.69098558-34.45830982 4.95724961-46.71672645-16.00331568-36.88305405-62.66615076 4.9033799-58.97516499 7.32812419-138.91087286 7.32812388-239.72631904 0-49.19536261-2.47863573-86.07839457-7.32812388-110.67609788-4.98420615-27.02242549 4.9033799-36.8830544 29.52799559-29.52797347 53.99095894 12.20454684 95.85819692 25.70229218 125.38619259 40.46627911z m291.37338265 25.81005294h-276.6363308l-3.6909854 7.35503687c-12.36619937 7.38199302-18.50888629 17.24262227-18.50888604 29.52799561v217.63423025h298.782311l0.05389124-254.51726273z" p-id="1089"></path></svg>