<?xml version="1.0" standalone="no"?><!DOCTYPE svg PUBLIC "-//W3C//DTD SVG 1.1//EN" "http://www.w3.org/Graphics/SVG/1.1/DTD/svg11.dtd"><svg t="1606284717379" class="icon" viewBox="0 0 3802 1024" version="1.1" xmlns="http://www.w3.org/2000/svg" p-id="1361" xmlns:xlink="http://www.w3.org/1999/xlink" width="178.21875" height="48"><defs><style type="text/css"></style></defs><path d="M1481.223136 916.613947c0.444754-1.214058 0.781325-2.195722 1.177997-3.145332 6.655283-15.939022 13.430769-31.858009 19.941808-47.817065a3448.193766 3448.193766 0 0 0 19.709413-49.363687c7.252295-18.547444 14.51661-37.094887 21.356206-55.678392a911.705626 911.705626 0 0 0 14.6288-42.98888c4.251207-13.619089 7.841293-27.298279 11.527543-40.965449 1.514568-5.617523 2.44815-11.283128 3.806453-16.932706 0.208353-0.881494 0.873481-1.871172 1.975349-2.556334 10.886456-6.751446 24.521572-11.002653 42.199541-11.519529 7.440614-0.22438 14.865201-0.568965 22.309822-0.72523 6.831582-0.152258 13.675184-0.084143 20.514779-0.160271 26.589077-0.320543 53.178154-0.741257 79.775244-0.973651 17.525712-0.148251 35.075464-0.292496 52.589155-0.020034 34.678791 0.556944 68.792625 3.021122 101.644319 8.931141 26.168364 4.699968 50.000767 11.423366 70.046751 21.195934 30.207211 14.736984 49.616115 32.463035 57.71785 53.258289 4.13501 10.601974 5.100647 21.28809 3.762379 32.066363-2.43613 19.697393-11.303162 38.593428-27.594782 56.57992-15.918988 17.581807-37.844158 33.092101-64.509364 46.939578-27.166055 14.111924-57.697816 26.004085-92.404654 35.111525-31.397228 8.258-64.597513 13.835455-99.408529 17.088971-27.975427 2.604415-56.195269 3.533991-84.591409 3.413787-24.990366-0.104177-49.988747-0.01202-74.98312-0.228387-27.963407-0.236401-55.922807-0.709202-83.882206-1.093854-5.541394-0.076129-11.10683-0.268455-17.309345-0.416707z m137.024299-43.734143c1.566656 0.192326 2.86085 0.384652 4.179085 0.496842 14.095897 1.238099 28.307991 1.959322 42.600221 2.227777 21.933184 0.396672 43.722123-0.264448 65.25062-2.532293 29.634239-3.109271 56.972586-8.903094 80.788962-18.347104 41.310033-16.391789 68.832693-37.455499 82.960645-62.922674 4.820172-8.678713 7.388526-17.553759 8.48238-26.557022 1.37433-11.206999-0.488829-22.241707-7.865334-32.867721-12.773655-18.423233-36.193359-32.074376-72.438807-39.771425-22.618345-4.800138-46.438728-6.7835-70.77198-7.40856-23.139228-0.584992-46.210341 0.168285-69.205325 1.490527-2.824789 0.164279-2.948999 0.248421-3.401767 1.718914-1.602717 5.244892-3.153346 10.48177-4.840206 15.718648a3320.425158 3320.425158 0 0 1-9.291752 28.251896 3084.469139 3084.469139 0 0 1-10.810327 31.918111c-4.006793 11.55559-8.274027 23.08714-12.224725 34.64273a2404.003537 2404.003537 0 0 0-12.973995 39.142359c-3.517964 10.902483-6.795521 21.816987-10.161226 32.723476-0.204346 0.661121-0.188319 1.338269-0.276469 2.075519zM3006.152368 644.893296c-6.222549 13.931618-12.376983 27.727006-18.61556 41.686672h-3.906622c-58.310855 0.01202-116.633731 0.020034-174.944586 0.036061-8.438306 0-16.888632-0.088149-25.338958 0.060102a109.890298 109.890298 0 0 0-21.985272 2.588388c-5.164756 1.16197-9.215623 2.920952-12.236745 5.300987-4.968423 3.898609-7.909409 8.16985-9.271718 12.733587-3.145332 10.365573-6.298678 20.727139-9.472058 31.088705-1.510561 4.928355-3.129305 9.852703-4.687948 14.781059-0.216367 0.661121-0.31253 1.322242-0.52489 2.227776h197.354578c0 0.753277 0.176299 1.294194-0.032054 1.819084a10567.074493 10567.074493 0 0 1-14.28021 36.153291c-0.084143 0.244414-0.332564 0.456774-0.6491 0.877488-1.718914 0.036061-3.533991 0.10017-5.365096 0.10017l-185.386287 0.004007c-6.254604 0-6.322719-0.004007-7.388526 3.101257-5.353075 15.558376-10.742211 31.112746-15.939022 46.671122-3.049169 9.099426-5.761768 18.234914-8.606591 27.354375-0.208353 0.673141-0.260442 1.350289-0.44876 2.295892 17.581807 0.040068 34.811016 0.016027 52.052244 0.020034h207.559879c-6.254604 14.107917-12.669479 27.97142-18.948123 41.778828-3.429815 0.428727-373.905887 0.452768-377.395804 0.036061 0.080136-0.408693 0.084143-0.817386 0.252428-1.238099 9.868731-23.62405 19.933794-47.228066 29.586158-70.87215a3863.710196 3863.710196 0 0 0 27.262218-68.832693c4.259221-11.086796 7.841293-22.2377 11.483468-33.376584 3.806453-11.695828 7.264315-23.423711 10.990633-35.131559 1.234092-3.874569 2.528286-7.757151 4.255214-11.587645 3.06119-6.795521 9.588255-12.825744 17.253249-18.555457 14.624794-10.914503 34.121847-19.072334 57.072756-25.250808 10.573926-2.836809 21.412301-5.333041 33.416652-6.1344 6.635249-0.428727 13.346627-0.721223 20.037971-0.841426 40.885313-0.745263 81.786654-0.496842 122.700015-0.352598 15.149683 0.056095 30.323408 0.21236 45.489118 0.368625 21.748871 0.228387 43.493735 0.480815 65.2386 0.74927 4.327336 0.076129 8.650666 0.22438 13.418749 0.340578zM3448.514309 870.071042c-1.370323 4.339357-2.640476 8.406251-3.930663 12.465133-3.109271 9.724486-6.23457 19.456986-9.343841 29.189485-0.32455 0.977657-0.705196 1.971342-0.893515 2.957013-0.192326 1.057793-1.326248 1.510561-3.313617 1.650799-12.541261 0.893515-25.046462 2.027437-37.631798 2.652496-18.299023 0.913549-36.658147 1.518574-55.001244 2.135621-7.677015 0.252428-15.410125 0.260442-23.107174 0.252428-14.059836 0-28.123678 0.11219-42.13944-0.216367-36.049115-0.821393-71.373-3.678236-105.2905-10.16924-50.918322-9.712466-87.400171-27.358381-112.214238-51.407151-12.188664-11.816032-19.404897-24.413388-22.422013-37.627791-2.295892-10.097118-2.031444-20.182215-0.048081-30.287347 3.097251-15.57841 10.549885-30.591863 22.850739-44.980255 14.82914-17.357426 35.688503-32.699436 61.732656-46.262429 47.716895-24.854136 104.380958-42.307725 170.701392-51.6716 21.219974-2.989067 42.80056-5.008491 64.677649-6.270631 24.782013-1.430425 49.616115-1.706894 74.474257-1.294194 24.128906 0.396672 48.09754 1.606724 71.673509 4.375418 1.554636 0.184312 3.089237 0.384652 5.100648 0.645094-8.790903 15.850872-17.48965 31.56952-26.296581 47.428406-1.450459-0.184312-2.632463-0.320543-3.774399-0.488829-17.104998-2.508252-34.550574-4.090935-52.256591-5.080613a745.724236 745.724236 0 0 0-61.059515-1.001698c-46.438728 1.210051-88.494025 8.398238-123.589523 24.185001-32.711456 14.712943-55.482059 32.687415-67.718805 53.923417-7.504723 13.006049-10.730191 26.296581-8.927134 39.819506 2.588388 19.364829 17.016849 36.177332 44.479406 49.980733 16.271585 8.185878 36.065142 13.374674 58.014353 16.596136 14.977391 2.195722 30.291353 3.405774 45.84973 3.806453 23.115187 0.601019 46.238389 0.400679 69.333542-0.172292 22.76259-0.580985 45.252717-2.143634 67.398261-4.924348 0.697182-0.076129 1.410391-0.104177 2.67253-0.208354zM2255.38358 689.561021h-172.264041c0.989678-0.917556 1.566656-1.48652 2.231783-2.051477 8.542482-7.140105 18.591518-13.731279 29.301676-20.070025 9.015284-5.333041 18.695695-10.345539 28.824867-15.165711 9.335827-4.423499 20.406596-6.519052 32.883748-7.075996a302.833397 302.833397 0 0 1 13.76734-0.336571c28.832881-0.036061 57.681789-0.020034 86.534703-0.020034l275.27067-0.032054h5.188797c-0.368625 1.101868-0.633073 2.01141-1.001698 2.900918-5.677625 13.170328-11.33121 26.340656-17.113012 39.494956-1.093854 2.544313-0.220374 2.360001-5.649578 2.360001-52.10834 0.008014-104.196646 0.008014-156.284952 0.008014h-5.116674c-0.476808 0.921562-0.981664 1.746962-1.330255 2.584381-6.915724 16.548054-14.035795 33.064054-20.618956 49.636149-4.511649 11.391312-8.402244 22.818685-12.340922 34.262085a1617.530219 1617.530219 0 0 0-11.623706 35.075464c-3.221461 10.037016-6.250597 20.094066-9.279732 30.143102a1922.839814 1922.839814 0 0 0-7.877354 26.845511 1708.412293 1708.412293 0 0 0-6.302685 22.802658c-2.071512 7.660988-4.082922 15.338003-6.130393 22.994984-0.144245 0.556944-0.4127 1.097861-0.609033 1.61073-3.001088 0.480815-124.735466 0.53691-128.189321 0.052089 31.208909-74.991133 62.189431-150.042369 87.728728-226.019174z" p-id="1362" fill="#ffffff"></path><path d="M937.757793 416.930828c-1.754975 2.075519-3.105264 3.69827-4.507642 5.260919-37.731967 42.243616-74.758739 85.116299-109.918346 129.559644-17.982486 22.714508-33.78127 46.855435-48.093534 72.03412-1.129916 1.971342-2.299899 3.938677-3.574059 6.118373-1.831104-0.705196-3.245502-1.238099-4.643873-1.783023-20.041977-7.785198-39.891629-16.171416-60.186034-23.271452-21.60062-7.52075-43.83832-12.937934-66.272352-17.497664-30.030912-6.118373-60.310245-10.601974-90.769884-13.843469-29.97081-3.1854-60.017749-3.209441-90.084721-1.754975-15.67858 0.74927-31.365174 1.79905-47.035741 2.472191-21.752878 0.925569-43.205246 4.102956-64.633574 7.721089-11.64374 1.995383-23.403677 3.477896-34.96728 5.906013-16.672265 3.477896-33.160217 7.913416-49.832482 11.45542-40.296315 8.598577-78.709437 23.39967-117.775666 36.009047-10.117152 3.257523-19.785543 7.889375-29.686328 11.872127-1.714907 0.685162-3.477896 1.246113-5.577456 1.093854 1.302208-1.093854 2.54832-2.283872 3.914637-3.325638 111.32473-86.234194 228.026576-164.49487 349.837083-235.106579 55.870718-32.39492 112.68704-63.050891 170.31674-92.184281 3.650188-1.843125 6.919731-2.404076 11.002653-1.270153 74.550386 20.630976 148.555849 42.964839 220.754248 70.884171 22.045374 8.518441 43.786231 17.842248 65.663319 26.82147 1.887199 0.785331 3.726317 1.742955 6.070292 2.828796zM1090.665018 962.647989c-29.413866-70.351267-69.601997-133.76277-121.457909-189.609447-51.855912-55.882739-111.276649-101.66836-180.802517-134.19951 25.727616-37.924294 51.936048-74.530352 80.219998-109.697973 28.348059-35.231729 56.607968-70.487498 88.734433-103.435355 76.301355 35.440082 148.467699 78.008248 213.31764 132.508644-3.58608 14.007748-7.055962 27.498619-10.501804 41.013531-17.545746 68.544204-32.771558 137.629325-44.803957 207.371559-5.701666 33.023986-10.421668 66.232284-15.277901 99.416542-1.690867 11.515522-2.283872 23.155255-3.786419 34.694819-0.933583 7.220241-2.588388 14.376372-3.914636 21.560552-0.588999 0.10017-1.157963 0.248421-1.726928 0.376638zM659.297716 306.531667c213.566061-105.755288 435.894978-187.317562 667.17507-245.179656-6.054264 4.888287-12.092501 9.788595-18.178819 14.632807-49.7844 39.611153-99.264284 79.590932-147.281688 121.333699-61.688581 53.60688-120.456211 110.266937-177.096234 169.15477-11.691821 12.16863-22.99899 24.709891-34.502492 37.070846-0.909542 0.945603-1.947301 1.791036-3.245502 2.953007-92.761259-41.422224-189.152673-72.270521-286.870335-99.965473zM1326.765282 70.727906c-55.121448 156.23687-109.217157 312.654046-152.879178 473.438626-32.218621-26.432812-65.310722-49.68423-99.873317-70.868143-34.406329-21.047682-70.086819-39.735364-107.10157-57.353232 1.638778-1.987369 2.772701-3.489916 4.010799-4.88428 28.632541-32.178553 58.246746-63.447563 88.518066-94.095522 44.459373-45.00029 90.54951-88.32574 137.332822-130.881885 17.918377-16.30364 36.858487-31.505412 55.345829-47.200019 24.990366-21.215968 49.676217-42.780526 72.591064-66.292386 0.62506-0.669134 1.36231-1.250119 2.055485-1.863159z" p-id="1363" fill="#ffffff"></path><path d="M1888.233145 473.85934c15.458206 0 22.197632-9.792602 46.891496-70.603696 8.530462 10.309478 31.489384 20.614949 46.450749 24.733932-36.489862 81.426043-61.2278 103.587613-109.153049 103.587613H1813.153862c-57.713843 0-64.020535-19.068327-42.343786-77.299046l46.607014-125.232307h-75.239555c-45.481105 91.73552-100.334098 168.521697-235.551333 213.357708-1.077827-16.495966-8.879053-41.229898-17.994506-54.111737 115.018993-33.500794 156.080605-91.218644 189.128632-159.245971h-121.622188l22.057395-59.264472h197.374611l31.072678-83.485534h-88.638269c-21.632674 26.284561-44.238999 51.022499-65.767497 70.090826-10.650055-8.762856-31.813935-21.131825-44.138829-26.797431 49.227456-42.259643 99.340413-111.829586 129.727929-164.398707l58.270788 12.36897a2727.904651 2727.904651 0 0 1-34.065752 49.988746h66.476698l25.891895-69.573949h62.357716l-25.891895 69.573949h157.695343l-21.865068 58.747596h-157.695343l-31.072678 83.485534h197.891488l-22.057394 59.264472h-134.50002l-46.607013 125.232307c-6.330733 17.004828-4.715995 19.581196 11.263094 19.581197h44.315128zM2146.987815 432.116573c6.330733 5.152735 13.302552 11.335217 22.341877 17.521704 27.75906 19.581196 74.017483 22.67444 131.214449 22.674441 54.632619 0 139.135879-4.12299 193.544118-11.852093-12.320888 16.491959-33.753222 46.382633-40.793157 63.904337-37.868198 2.063498-123.537435 5.152735-176.094535 5.152736-65.454967 0-106.628769-5.669612-136.387219-26.79743-19.100381-12.368969-30.676005-28.348059-42.015229-28.348059-15.4542 0-50.601786 33.500794-80.660745 64.421214l-19.553149-58.234726c33.104122-25.254815 64.417207-44.323142 90.224959-54.111736l46.607014-125.228301H2075.638856l21.28809-57.204981h120.071559l-70.01069 188.102894z m58.066441-243.244376c-6.635249-23.704186-28.191794-61.32797-45.917845-87.095654l55.946847-34.013664c18.811892 24.221062 42.876689 59.264472 51.250887 82.455789l-61.279889 38.653529z m126.414312 146.360127c-27.053865 46.382633-63.703998 92.24839-114.057363 123.681679-3.642175-12.364962-19.424931-35.04341-29.241574-43.285383 35.756619-22.678447 61.055508-50.505623 80.941221-80.396296h-58.234726l21.865068-58.751603h68.027328c6.02221-13.398715 10.622008-25.763677 15.418138-38.649523l12.084487-32.467042h-64.417207l22.057394-59.264471h64.417207l27.811149-74.726685h60.811094l-27.811149 74.726685h58.230719l27.430504-73.69694h61.32797L2530.690311 146.099685h58.747595l-22.057394 59.264471h-58.747595l-26.464866 71.116565h69.053066l-21.865068 58.751603h-69.053067l-43.157164 115.952575h-61.327971l43.157165-115.952575h-67.506444z m45.140527-96.367373c-4.599798 12.364962-9.53216 24.217055-15.033486 37.61577h59.264471l26.464867-71.116565h-58.23072l-12.465132 33.500795zM2695.309392 506.843258a270.550668 270.550668 0 0 0-29.381812-26.280554c-44.311121 26.280554-92.436709 44.836011-143.61948 57.71785-0.484822-13.915591-4.287268-35.556279-10.758238-45.865757 40.172104-8.249986 79.687095-21.644695 115.776277-39.683276-19.428938-12.881839-40.781137-24.737939-60.330279-34.53054 14.264182-13.394708 29.998857-29.373798 46.831394-46.895502h-39.162392l18.415219-49.475877h64.413201c8.474367-10.309478 16.243538-20.102079 23.491826-29.890674l50.469561 9.788594c-5.0726 6.699358-10.654062 13.402722-16.239531 20.10208h65.446953l9.852704-1.546622 28.376106 12.368969c-29.24558 45.352887-63.671944 82.455788-101.079361 112.350469 11.038714 7.729103 20.530806 15.458206 28.151726 22.67444l-50.653874 39.1664z m15.233826-263.859324c-32.527144 23.704186-67.891097 45.344874-98.843571 59.264471-1.710901-13.398715-7.628933-33.500794-14.749004-44.836011 35.007348-12.368969 75.912696-35.047416 109.533694-60.298224h-76.269301l18.026561-48.438118h40.196145c2.404076-17.525712 0.328557-43.810272-3.529984-63.904337l50.000767-18.038581c6.815554 19.068327 9.728493 45.865757 7.328424 63.387461l-48.650478 18.555457h52.048238l33.757229-90.705774h56.688104l-33.757229 90.705774h97.397118l-18.02656 48.438118h-75.235548c18.198853 13.398715 40.733055 30.40755 47.187998 36.590032l-47.869153 42.772512c-7.30839-10.822347-21.079737-27.827176-34.907178-43.285382l-20.907445 56.175235h-56.688104l17.269277-46.382633z m-37.451492 128.321545c-8.798917 9.788595-17.405508 19.068327-25.627447 27.310299 11.423366 6.699358 23.163269 13.915591 33.877433 21.127819 19.80157-14.428461 38.11662-30.403544 54.103723-48.442125H2673.091726z m389.011496-161.82234c-36.646127 72.150317-74.542373 132.448542-117.563307 182.950158 8.554503 40.713021 27.911318 73.180063 58.691501 94.307881-17.429549 10.822347-43.710102 32.979911-57.709836 48.442125-27.306293-22.161571-44.719814-51.535369-54.488375-87.608524-43.95051 39.166399-92.56092 70.086819-149.505459 94.307881-1.065807-12.368969-7.448628-38.136654-13.859496-49.992753 60.682876-23.191317 110.90001-55.654352 153.099552-98.426864-2.86085-32.471049-0.773311-68.544204 3.493923-107.706597a613.263674 613.263674 0 0 1-44.379237 45.865757c-4.415486-10.309478-20.118106-30.403544-29.229553-39.166399 61.175712-53.59486 116.265106-140.690514 162.447399-232.938904l52.589155 8.245979c-14.861194 28.860928-30.756141 57.721857-47.107862 85.032156h137.080394l-21.099771 56.688104h-32.459028z m-143.230821-124.711424c-25.63546 23.191317-50.241174 46.378626-69.58597 62.357715l-32.643341-17.521704c18.567478-18.038581 42.836621-45.865757 58.182638-64.934084l44.046673 20.098073z m29.854613 124.711424c-7.608899 41.229898-12.076473 80.913173-12.29284 117.499198 24.894203-35.04341 47.528576-73.696939 68.984951-117.499198h-56.692111zM3174.938513 435.209817c5.813856 5.152735 12.597356 11.852093 21.953218 18.55145 26.528975 20.102079 71.244782 23.191317 126.90314 23.191317s142.926305-4.639866 199.209723-11.852093c-12.453112 15.462213-31.381201 42.772513-38.353021 58.747595-40.448573 2.059491-127.147555 5.156742-181.77216 5.156742-64.417207 0-104.048395-5.669612-132.132005-25.771691-16.007137-12.368969-27.262218-27.831183-38.601442-27.831182-15.458206 0-52.024197 30.40755-85.372733 61.840839l-18.439261-51.531361c31.305072-23.191317 62.429838-41.742767 88.42591-52.052245l45.64939-122.651934h-64.930077l21.099771-56.69211h123.677672l-67.318125 180.894673z m59.761314-233.96865c-9.536167-24.221062-36.44178-61.323963-56.86841-88.1254l54.84498-36.590032c21.580586 23.708193 50.413467 59.781348 62.073233 82.455788l-60.049803 42.259644z m35.948945 250.973478h-57.71785l98.775455-265.401939h112.342456c-21.031655-11.339224-42.580187-22.678447-61.800772-31.954172l51.763756-32.471049c16.896645 7.216234 37.475533 17.008835 57.016661 26.79743 18.206866-8.762856 36.798385-18.551451 54.027594-28.860928h-183.975897l17.261263-46.378627h236.541011l13.522926-3.093244 25.138618 29.377805c-34.975294 24.733932-78.252663 51.014485-119.935328 71.629434 8.061667 4.639866 15.422145 9.796608 21.616647 13.919598l-1.414398 1.029746h69.053066l-79.021967 212.323956c-9.399936 25.254815-18.6396 37.623784-38.200762 45.865756-19.236612 8.758849-41.907046 8.758849-72.314596 8.758849 2.985061-14.94133 4.090935-34.53054 2.380035-47.925248 16.291619 0.512869 33.813324 0.512869 38.974073 0.51287 6.378814-0.512869 8.686727-2.572361 10.605981-7.729104l8.822958-23.704186H3413.306621l-27.999467 75.239555h-54.628613l28.003475-75.239555h-59.264472l-28.768772 77.303053z m104.525203-121.622187l10.742211-28.860929h-59.260465l-10.742211 28.860929h59.260465z m-22.245714-99.460617l-10.353552 27.823169h59.256458l10.357559-27.823169h-59.260465z m137.68542 99.460617l10.742211-28.860929h-60.811093l-10.742212 28.860929h60.811094z m37.014752-99.460617h-60.811094l-10.353553 27.823169h60.807087l10.35756-27.823169z" p-id="1364" fill="#ffffff"></path></svg>