<?xml version="1.0" standalone="no"?><!DOCTYPE svg PUBLIC "-//W3C//DTD SVG 1.1//EN" "http://www.w3.org/Graphics/SVG/1.1/DTD/svg11.dtd"><svg t="1656301927662" class="icon" viewBox="0 0 1024 1024" version="1.1" xmlns="http://www.w3.org/2000/svg" p-id="6857" xmlns:xlink="http://www.w3.org/1999/xlink" width="32" height="32"><defs><style type="text/css">@font-face { font-family: feedback-iconfont; src: url("//at.alicdn.com/t/font_1031158_u69w8yhxdu.woff2?t=1630033759944") format("woff2"), url("//at.alicdn.com/t/font_1031158_u69w8yhxdu.woff?t=1630033759944") format("woff"), url("//at.alicdn.com/t/font_1031158_u69w8yhxdu.ttf?t=1630033759944") format("truetype"); }
</style></defs><path d="M101.153643 399.195625c0-32.333039 21.133886-58.705239 47.325454-58.705239h807.422826v-44.074087c0-35.584406-22.217675-64.485447-49.493033-64.485447H496.014112l-42.809667-58.163345C434.5994 138.544364 407.324043 122.829423 385.828894 122.829423h-339.587229C24.746516 122.829423 7.22526 145.588993 7.22526 173.767507v611.437644L101.153643 399.195625z" p-id="6858" fill="#f4ea2a"></path><path d="M976.313283 398.473099H189.121185c-23.301464 0-42.267772 23.482096-42.267772 52.563768L50.034927 848.78744c0 29.081672 18.966308 52.563768 42.267772 52.563768h787.192097c23.301464 0 42.267772-23.482096 42.267772-52.563768l96.818487-397.750573c0-29.081672-18.966308-52.563768-42.267772-52.563768zM737.157171 617.398483l-79.477862 77.129652c-3.251367 3.251367-5.780208 10.657259-5.057683 15.173047l18.424414 109.28206c1.264421 7.586523-0.903158 14.269889-6.141471 17.882519-2.709473 1.806315-5.780208 2.890104-9.031576 2.890104-3.251367 0-6.502734-0.903158-9.934732-2.709472l-97.902276-51.841242c-3.973893-2.167578-11.921679-2.167578-16.076204 0l-98.263538 51.299347c-6.863997 3.61263-13.727994 3.431999-18.966308-0.180631-5.238314-3.793262-7.405892-10.295996-5.96084-18.063151l18.966308-109.28206c0.722526-4.515788-1.625684-12.102311-4.877051-15.173047l-79.116599-77.490915c-5.599577-5.418945-7.586523-12.102311-5.599576-18.063151 1.986947-6.141471 7.586523-10.115364 15.173046-11.199153l109.643323-15.714941c4.515788-0.722526 11.018522-5.238314 13.005469-9.392838l49.312401-99.347328c3.431999-7.044629 8.850944-11.018522 15.534309-11.018521 6.322103 0 11.921679 3.973893 15.353678 11.018521l48.770506 99.52796c1.986947 4.154525 8.489681 8.850944 13.005468 9.392838l109.643324 16.256835c7.767155 1.083789 13.1861 5.238314 15.173046 11.379785 1.986947 6.322103 0 12.824837-5.599576 18.243782z" p-id="6859" fill="#f4ea2a"></path></svg>